<!DOCTYPE svg PUBLIC "-//W3C//DTD SVG 1.1//EN" "http://www.w3.org/Graphics/SVG/1.1/DTD/svg11.dtd">
<!-- Uploaded to: SVG Repo, www.svgrepo.com, Transformed by: SVG Repo Mixer Tools -->
<svg width="800px" height="800px" viewBox="0 0 16 16" version="1.1" xmlns="http://www.w3.org/2000/svg" xmlns:xlink="http://www.w3.org/1999/xlink" fill="#d4c4c4" transform="matrix(-1, 0, 0, 1, 0, 0)" stroke="#d4c4c4">
<g id="SVGRepo_bgCarrier" stroke-width="0"/>
<g id="SVGRepo_tracerCarrier" stroke-linecap="round" stroke-linejoin="round"/>
<g id="SVGRepo_iconCarrier"> <path fill="##d4c4c4" d="M9 9v-7h7v7.1c0 4.8-4.5 5.4-4.5 5.4l-0.6-1.4c0 0 2-0.3 2.4-1.9 0.4-1.2-0.4-2.2-0.4-2.2h-3.9z"/> <path fill="##d4c4c4" d="M0 9v-7h7v7.1c0 4.8-4.5 5.4-4.5 5.4l-0.6-1.4c0 0 2-0.3 2.4-1.9 0.4-1.2-0.4-2.2-0.4-2.2h-3.9z"/> </g>
</svg>